<?xml version="1.0" encoding="UTF-8" standalone="no" ?>
<!DOCTYPE svg PUBLIC "-//W3C//DTD SVG 1.1//EN" "http://www.w3.org/Graphics/SVG/1.1/DTD/svg11.dtd">
<svg xmlns="http://www.w3.org/2000/svg" xmlns:xlink="http://www.w3.org/1999/xlink" version="1.1" width="1280" height="1024" viewBox="0 0 1280 1024" xml:space="preserve">
<desc>Created with Fabric.js 5.3.0</desc>
<defs>
</defs>
<g transform="matrix(1 0 0 1 640 512)" id="background-logo"  >
<linearGradient id="SVGID_12_93012_93014" gradientUnits="userSpaceOnUse" gradientTransform="matrix(1 0 0 1 -640 -512)"  x1="0" y1="0" x2="0" y2="1024">
<stop offset="0%" style="stop-color:rgb(23,234,217);stop-opacity: 1"/>
<stop offset="100%" style="stop-color:rgb(96,120,234);stop-opacity: 1"/>
</linearGradient>
<rect style="stroke: none; stroke-width: 0; stroke-dasharray: none; stroke-linecap: butt; stroke-dashoffset: 0; stroke-linejoin: miter; stroke-miterlimit: 4; fill: url(#SVGID_12_93012_93014); fill-rule: nonzero; opacity: 1;"  paint-order="stroke"  x="-640" y="-512" rx="0" ry="0" width="1280" height="1024" />
</g>
<g transform="matrix(1.9211538461538462 0 0 1.9211538461538462 636.0865645883413 506.340626576923)" id="text-logo"  >
<g style=""  paint-order="stroke"   >
		<g transform="matrix(1 0 0 1 5.684342e-14 0)" id="text-logo-path-0"  >
<filter id="SVGID_93013" y="-23.057083121035895%" height="146.1141662420718%" x="-21.503238109520517%" width="143.00647621904102%" >
	<feGaussianBlur in="SourceAlpha" stdDeviation="0"></feGaussianBlur>
	<feOffset dx="7.404255319148937" dy="1.8510638297872342" result="oBlur" ></feOffset>
	<feFlood flood-color="rgb(255,70,163)" flood-opacity="1"/>
	<feComposite in2="oBlur" operator="in" />
	<feMerge>
		<feMergeNode></feMergeNode>
		<feMergeNode in="SourceGraphic"></feMergeNode>
	</feMerge>
</filter>
<path style="stroke: rgb(0,0,0); stroke-width: 7.404255319148935; stroke-dasharray: none; stroke-linecap: butt; stroke-dashoffset: 0; stroke-linejoin: miter; stroke-miterlimit: 4; fill: rgb(255,255,255); fill-rule: nonzero; opacity: 1;filter: url(#SVGID_93013);"  paint-order="stroke"  transform=" translate(-247.01313699821492, 30.275)" d="M 22.01 0 L 11.48 0 Q 11.14 0 11.05 -0.44 L 11.05 -0.44 L 0.78 -60.2 Q 0.7 -60.55 1.04 -60.55 L 1.04 -60.55 L 10.79 -60.55 Q 11.14 -60.55 11.22 -60.2 L 11.22 -60.2 L 16.79 -20.88 L 22.53 -60.2 Q 22.62 -60.55 23.06 -60.55 L 23.06 -60.55 L 30.89 -60.55 Q 31.23 -60.55 31.32 -60.2 L 31.32 -60.2 L 36.98 -20.88 L 42.63 -60.2 Q 42.72 -60.55 43.07 -60.55 L 43.07 -60.55 L 52.72 -60.55 Q 53.16 -60.55 53.07 -60.2 L 53.07 -60.2 L 42.72 -0.44 Q 42.63 -0.26 42.46 -0.13 Q 42.28 0 42.28 0 L 42.28 0 L 31.76 0 Q 31.49 0 31.32 -0.44 L 31.32 -0.44 L 26.88 -31.67 L 22.45 -0.44 Q 22.36 0 22.01 0 L 22.01 0 Z M 57.42 -0.44 L 57.42 -0.44 L 68.21 -60.2 Q 68.3 -60.55 68.64 -60.55 L 68.64 -60.55 L 81.26 -60.55 Q 81.61 -60.55 81.69 -60.2 L 81.69 -60.2 L 92.05 -0.44 Q 92.13 0 91.7 0 L 91.7 0 L 82.04 0 Q 81.69 0 81.61 -0.44 L 81.61 -0.44 L 80.65 -6.79 L 68.82 -6.79 L 67.86 -0.44 Q 67.77 0 67.43 0 L 67.43 0 L 57.77 0 Q 57.42 0 57.42 -0.44 Z M 74.47 -40.54 L 70.56 -16.1 L 78.91 -16.1 L 75.34 -40.54 L 74.82 -43.76 L 74.47 -40.54 Z M 131.81 0 L 103.7 0 Q 103.36 0 103.36 -0.44 L 103.36 -0.44 L 103.44 -60.12 Q 103.44 -60.55 103.88 -60.55 L 103.88 -60.55 L 113.53 -60.55 Q 113.97 -60.55 113.97 -60.12 L 113.97 -60.12 L 113.88 -10.7 L 131.81 -10.7 Q 132.24 -10.7 132.24 -10.27 L 132.24 -10.27 L 132.24 -0.44 Q 132.24 0 131.81 0 L 131.81 0 Z M 153.9 0 L 144.07 0 Q 143.72 0 143.72 -0.44 L 143.72 -0.44 L 143.9 -60.12 Q 143.9 -60.55 144.25 -60.55 L 144.25 -60.55 L 153.99 -60.55 Q 154.34 -60.55 154.34 -60.12 L 154.34 -60.12 L 154.34 -39.5 L 168 -60.2 Q 168.26 -60.55 168.61 -60.55 L 168.61 -60.55 L 178.61 -60.55 Q 178.96 -60.55 178.78 -60.2 L 178.78 -60.2 L 163.73 -36.19 L 180.61 -0.35 Q 180.79 0 180.18 0 L 180.18 0 L 169.56 0 Q 169.13 0 169.04 -0.35 L 169.04 -0.35 L 157.3 -25.93 L 154.25 -21.14 L 154.25 -0.44 Q 154.25 0 153.9 0 L 153.9 0 Z M 199.75 0 L 189.92 0 Q 189.49 0 189.49 -0.44 L 189.49 -0.44 L 189.57 -60.2 Q 189.57 -60.55 189.92 -60.55 L 189.92 -60.55 L 199.66 -60.55 Q 200.01 -60.55 200.01 -60.2 L 200.01 -60.2 L 200.1 -0.44 Q 200.1 0 199.75 0 L 199.75 0 Z M 242.03 0 L 213.93 0 Q 213.59 0 213.59 -0.44 L 213.59 -0.44 L 213.67 -60.2 Q 213.67 -60.55 214.02 -60.55 L 214.02 -60.55 L 241.95 -60.55 Q 242.3 -60.55 242.3 -60.12 L 242.3 -60.12 L 242.3 -50.37 Q 242.3 -50.03 241.95 -50.03 L 241.95 -50.03 L 224.11 -50.03 L 224.11 -36.45 L 241.95 -36.45 Q 242.3 -36.45 242.3 -36.11 L 242.3 -36.11 L 242.38 -26.27 Q 242.38 -25.93 242.03 -25.93 L 242.03 -25.93 L 224.11 -25.93 L 224.11 -10.7 L 242.03 -10.7 Q 242.38 -10.7 242.38 -10.27 L 242.38 -10.27 L 242.38 -0.35 Q 242.38 0 242.03 0 L 242.03 0 Z M 293.19 0 L 283.36 0 Q 283.01 0 283.01 -0.44 L 283.01 -0.44 L 283.01 -50.03 L 271.7 -50.03 Q 271.27 -50.03 271.27 -50.46 L 271.27 -50.46 L 271.35 -60.2 Q 271.35 -60.55 271.7 -60.55 L 271.7 -60.55 L 304.76 -60.55 Q 305.2 -60.55 305.2 -60.2 L 305.2 -60.2 L 305.2 -50.46 Q 305.2 -50.03 304.85 -50.03 L 304.85 -50.03 L 293.45 -50.03 L 293.54 -0.44 Q 293.54 0 293.19 0 L 293.19 0 Z M 308.33 -0.44 L 308.33 -0.44 L 319.12 -60.2 Q 319.2 -60.55 319.55 -60.55 L 319.55 -60.55 L 332.17 -60.55 Q 332.51 -60.55 332.6 -60.2 L 332.6 -60.2 L 342.95 -0.44 Q 343.04 0 342.61 0 L 342.61 0 L 332.95 0 Q 332.6 0 332.51 -0.44 L 332.51 -0.44 L 331.56 -6.79 L 319.73 -6.79 L 318.77 -0.44 Q 318.68 0 318.33 0 L 318.33 0 L 308.68 0 Q 308.33 0 308.33 -0.44 Z M 325.38 -40.54 L 321.47 -16.1 L 329.82 -16.1 L 326.25 -40.54 L 325.73 -43.76 L 325.38 -40.54 Z M 382.71 0 L 354.61 0 Q 354.26 0 354.26 -0.44 L 354.26 -0.44 L 354.35 -60.12 Q 354.35 -60.55 354.79 -60.55 L 354.79 -60.55 L 364.44 -60.55 Q 364.88 -60.55 364.88 -60.12 L 364.88 -60.12 L 364.79 -10.7 L 382.71 -10.7 Q 383.15 -10.7 383.15 -10.27 L 383.15 -10.27 L 383.15 -0.44 Q 383.15 0 382.71 0 L 382.71 0 Z M 404.81 0 L 394.98 0 Q 394.63 0 394.63 -0.44 L 394.63 -0.44 L 394.81 -60.12 Q 394.81 -60.55 395.15 -60.55 L 395.15 -60.55 L 404.9 -60.55 Q 405.25 -60.55 405.25 -60.12 L 405.25 -60.12 L 405.25 -39.5 L 418.91 -60.2 Q 419.17 -60.55 419.51 -60.55 L 419.51 -60.55 L 429.52 -60.55 Q 429.87 -60.55 429.69 -60.2 L 429.69 -60.2 L 414.64 -36.19 L 431.52 -0.35 Q 431.69 0 431.09 0 L 431.09 0 L 420.47 0 Q 420.04 0 419.95 -0.35 L 419.95 -0.35 L 408.2 -25.93 L 405.16 -21.14 L 405.16 -0.44 Q 405.16 0 404.81 0 L 404.81 0 Z M 450.66 0 L 440.83 0 Q 440.39 0 440.39 -0.44 L 440.39 -0.44 L 440.48 -60.2 Q 440.48 -60.55 440.83 -60.55 L 440.83 -60.55 L 450.57 -60.55 Q 450.92 -60.55 450.92 -60.2 L 450.92 -60.2 L 451.01 -0.44 Q 451.01 0 450.66 0 L 450.66 0 Z M 492.94 0 L 464.84 0 Q 464.49 0 464.49 -0.44 L 464.49 -0.44 L 464.58 -60.2 Q 464.58 -60.55 464.93 -60.55 L 464.93 -60.55 L 492.86 -60.55 Q 493.2 -60.55 493.2 -60.12 L 493.2 -60.12 L 493.2 -50.37 Q 493.2 -50.03 492.86 -50.03 L 492.86 -50.03 L 475.02 -50.03 L 475.02 -36.45 L 492.86 -36.45 Q 493.2 -36.45 493.2 -36.11 L 493.2 -36.11 L 493.29 -26.27 Q 493.29 -25.93 492.94 -25.93 L 492.94 -25.93 L 475.02 -25.93 L 475.02 -10.7 L 492.94 -10.7 Q 493.29 -10.7 493.29 -10.27 L 493.29 -10.27 L 493.29 -0.35 Q 493.29 0 492.94 0 L 492.94 0 Z" stroke-linecap="round" />
</g>
</g>
</g>
</svg>