<?xml version="1.0" encoding="UTF-8"?>
<svg version="1.1" xmlns="http://www.w3.org/2000/svg" width="512" height="512">
<path d="M0 0 C13.53 0 27.06 0 41 0 C41 34.32 41 68.64 41 104 C42.65 104 44.3 104 46 104 C47.48579257 118.47084546 48.96042932 132.94201086 50.1875 147.4375 C50.27112793 148.40558594 50.35475586 149.37367188 50.44091797 150.37109375 C50.51584473 151.27859375 50.59077148 152.18609375 50.66796875 153.12109375 C50.76501099 154.28789673 50.76501099 154.28789673 50.86401367 155.47827148 C51.03493852 158.64789937 51 161.82576683 51 165 C66.84 165 82.68 165 99 165 C99 154.44 99 143.88 99 133 C118.8 133 138.6 133 159 133 C158.938125 138.73375 158.87625 144.4675 158.8125 150.375 C158.97876588 166.16751073 160.87260353 178.02717077 172.57732582 189.55325222 C179.50767063 197.6020037 177.7878757 208.62826767 177.68115234 218.58422852 C177.67945869 220.79242405 177.68041227 223.00062296 177.68380737 225.20881653 C177.68552582 231.18772953 177.65029911 237.16591736 177.60836363 243.14466214 C177.57080513 249.39864484 177.5673272 255.65264495 177.56021118 261.90672302 C177.54369336 272.39862739 177.50623999 282.89030811 177.45263672 293.38208008 C177.39750076 304.18512656 177.35506063 314.98810086 177.32958984 325.79125977 C177.3280135 326.45798226 177.32643716 327.12470476 177.32481305 327.81163097 C177.31698241 331.15662678 177.30941381 334.50162309 177.30194163 337.84661973 C177.23926002 365.56459779 177.1337533 393.2822802 177 421 C174.69 421 172.38 421 170 421 C170 427.6 170 434.2 170 441 C172.31 441 174.62 441 177 441 C179.37397641 481.87196051 179.37397641 481.87196051 168.40625 494.9453125 C167.61417098 495.80123222 167.61417098 495.80123222 166.80609035 496.67444324 C164.8521464 499.02067735 164.8521464 499.02067735 163.47986698 502.17444134 C159.05176429 511.2332478 159.05176429 511.2332478 153.65022087 513.25182533 C149.38910629 513.77513943 145.28507522 513.88611999 140.99975586 513.85668945 C139.37749193 513.89235754 137.75533787 513.93335954 136.1333313 513.97926331 C131.74168898 514.08523331 127.35344786 514.1077987 122.96066356 514.10847878 C119.28305584 514.11491096 115.60619616 514.15784937 111.92884356 514.19923848 C103.24223721 514.29460202 94.55740671 514.31758976 85.87036133 514.29907227 C76.93836383 514.28161167 68.01542553 514.40092568 59.08552831 514.58590537 C51.3947055 514.73943671 43.70680405 514.79906261 36.01446825 514.78683823 C31.4296556 514.78094595 26.85244819 514.81091389 22.26914787 514.93486977 C-5.42669728 515.63026821 -5.42669728 515.63026821 -12.97477341 509.63863754 C-17.81501687 504.07463762 -21.02605293 497.92878416 -23.65392208 491.06688213 C-24.80472925 488.44490172 -25.99649197 486.52517807 -27.61514664 484.2018404 C-30.47054583 479.72407425 -30.69425397 476.05459928 -30.60127258 470.83776855 C-30.60554471 469.94888585 -30.60981683 469.06000314 -30.61421841 468.14418459 C-30.62241507 465.18349121 -30.59501857 462.2242334 -30.56762695 459.26367188 C-30.56621577 457.13444044 -30.56700984 455.00520658 -30.56983948 452.87597656 C-30.57127225 447.10782509 -30.54190423 441.34019499 -30.50696969 435.57216454 C-30.4756835 429.53971383 -30.47277365 423.50725077 -30.46684265 417.47473145 C-30.45131093 406.05677492 -30.41029128 394.63905816 -30.3600952 383.22120714 C-30.30418108 370.22009367 -30.27670998 357.21896866 -30.25161803 344.21776485 C-30.19937505 317.47837705 -30.11144556 290.73920197 -30 264 C-27.69 264 -25.38 264 -23 264 C-23 257.4 -23 250.8 -23 244 C-25.31 244 -27.62 244 -30 244 C-32.77265877 194.51261136 -32.77265877 194.51261136 -19.55078125 178.94140625 C-18.64392578 177.93726685 -18.64392578 177.93726685 -17.71875 176.9128418 C-11.16486906 169.6188564 -10.07621602 163.2454776 -9.375 153.5625 C-9.20555661 151.58965078 -9.0360908 149.61680332 -8.86561584 147.64404297 C-8.68853808 145.55602364 -8.52130352 143.46739677 -8.35595703 141.37841797 C-7.99077394 136.81266323 -7.57577919 132.25208193 -7.15234375 127.69140625 C-7.08178772 126.93048172 -7.01123169 126.16955719 -6.9385376 125.38557434 C-6.79845305 123.87511723 -6.65831701 122.3646649 -6.51812744 120.85421753 C-6.00000678 115.23724519 -5.50124868 109.61849807 -5 104 C-3.35 104 -1.7 104 0 104 C0 69.68 0 35.36 0 0 Z " fill="#555357" transform="translate(183,0)"/>
<path d="M0 0 C13.53 0 27.06 0 41 0 C41 34.32 41 68.64 41 104 C42.65 104 44.3 104 46 104 C47.48579257 118.47084546 48.96042932 132.94201086 50.1875 147.4375 C50.27112793 148.40558594 50.35475586 149.37367188 50.44091797 150.37109375 C50.51584473 151.27859375 50.59077148 152.18609375 50.66796875 153.12109375 C50.76501099 154.28789673 50.76501099 154.28789673 50.86401367 155.47827148 C51.03493852 158.64789937 51 161.82576683 51 165 C66.84 165 82.68 165 99 165 C99 154.44 99 143.88 99 133 C118.8 133 138.6 133 159 133 C158.938125 138.73375 158.87625 144.4675 158.8125 150.375 C158.97876588 166.16751073 160.87260353 178.02717077 172.57732582 189.55325222 C179.50767063 197.6020037 177.7878757 208.62826767 177.68115234 218.58422852 C177.67945869 220.79242405 177.68041227 223.00062296 177.68380737 225.20881653 C177.68552582 231.18772953 177.65029911 237.16591736 177.60836363 243.14466214 C177.57080513 249.39864484 177.5673272 255.65264495 177.56021118 261.90672302 C177.54369336 272.39862739 177.50623999 282.89030811 177.45263672 293.38208008 C177.39750076 304.18512656 177.35506063 314.98810086 177.32958984 325.79125977 C177.3280135 326.45798226 177.32643716 327.12470476 177.32481305 327.81163097 C177.31698241 331.15662678 177.30941381 334.50162309 177.30194163 337.84661973 C177.23926002 365.56459779 177.1337533 393.2822802 177 421 C172.05 421 167.1 421 162 421 C162.00590778 419.89400043 162.01181557 418.78800085 162.01790237 417.64848614 C162.15924161 390.67009421 162.23091659 363.69219181 162.23059464 336.71341991 C162.23203242 323.66628942 162.25566109 310.61992028 162.33251953 297.57299805 C162.39949454 286.19407407 162.42382559 274.81597114 162.39809489 263.43686563 C162.38594334 257.41779076 162.39436624 251.40040986 162.4539566 245.38158226 C162.50951509 239.7016776 162.50751701 234.02454013 162.46369362 228.34456062 C162.45743963 226.27391218 162.47119409 224.2030774 162.50784111 222.13274384 C162.7562118 207.15667161 159.36330885 197.71955391 150.30553794 185.73291856 C149.14762799 184.19595546 148.06742119 182.60113179 147 181 C144.32940732 180.5351952 144.32940732 180.5351952 141.14083862 180.60127258 C139.89279449 180.58873444 138.64475037 180.57619629 137.35888672 180.5632782 C135.96826146 180.56445238 134.57763642 180.56591159 133.18701172 180.56762695 C131.72859869 180.55861485 130.27019327 180.548289 128.8117981 180.53674316 C124.84508109 180.50908188 120.87850743 180.49987636 116.91170645 180.49388909 C112.76897047 180.48452905 108.62634258 180.4583277 104.4836731 180.43388367 C96.6355827 180.3901495 88.78751319 180.36164512 80.93933785 180.33856028 C72.00590495 180.31154558 63.07258042 180.26763187 54.13922477 180.22227156 C35.75954031 180.12932628 17.37982721 180.05769091 -1 180 C-1.27706787 180.76344727 -1.55413574 181.52689453 -1.83959961 182.31347656 C-3 185 -3 185 -5.56640625 187.984375 C-18.46400959 203.55052178 -15.4538466 224.92773272 -15 244 C-19.95 244 -24.9 244 -30 244 C-32.77265877 194.51261136 -32.77265877 194.51261136 -19.55078125 178.94140625 C-18.64392578 177.93726685 -18.64392578 177.93726685 -17.71875 176.9128418 C-11.16486906 169.6188564 -10.07621602 163.2454776 -9.375 153.5625 C-9.20555661 151.58965078 -9.0360908 149.61680332 -8.86561584 147.64404297 C-8.68853808 145.55602364 -8.52130352 143.46739677 -8.35595703 141.37841797 C-7.99077394 136.81266323 -7.57577919 132.25208193 -7.15234375 127.69140625 C-7.08178772 126.93048172 -7.01123169 126.16955719 -6.9385376 125.38557434 C-6.79845305 123.87511723 -6.65831701 122.3646649 -6.51812744 120.85421753 C-6.00000678 115.23724519 -5.50124868 109.61849807 -5 104 C-3.35 104 -1.7 104 0 104 C0 69.68 0 35.36 0 0 Z " fill="#000000" transform="translate(183,0)"/>
<path d="M0 0 C41.25 0 82.5 0 125 0 C125 27.72 125 55.44 125 84 C83.75 84 42.5 84 0 84 C0 56.28 0 28.56 0 0 Z " fill="#FF8F5B" transform="translate(194,229)"/>
<path d="M0 0 C4.95 0 9.9 0 15 0 C14.99317042 1.06900166 14.98634085 2.13800331 14.97930431 3.23939896 C14.81565275 29.32518257 14.727629 55.41040114 14.71759319 81.49670792 C14.71101304 94.1123073 14.6804157 106.72697165 14.59204102 119.34228516 C14.51501945 130.3458552 14.48432111 141.34844569 14.50781661 152.35227656 C14.51866307 158.17200404 14.50728817 163.98966381 14.44031334 169.80905914 C14.37782132 175.30281983 14.37793403 180.79324616 14.4231987 186.2871418 C14.42917194 188.28804857 14.41353244 190.2891744 14.37295341 192.28967857 C14.07947361 207.71396584 18.39744238 217.11070672 27.83151752 229.28041434 C29 231 29 231 29 233 C78.17 233 127.34 233 178 233 C178.66 231.35 179.32 229.7 180 228 C180.84691406 227.00613281 181.69382812 226.01226562 182.56640625 224.98828125 C194.35604411 210.980384 192.42550349 194.32689797 192 177 C196.95 177 201.9 177 207 177 C209.37397641 217.87196051 209.37397641 217.87196051 198.40625 230.9453125 C197.61417098 231.80123222 197.61417098 231.80123222 196.80609035 232.67444324 C194.8521464 235.02067735 194.8521464 235.02067735 193.47986698 238.17444134 C189.05176429 247.2332478 189.05176429 247.2332478 183.65022087 249.25182533 C179.38910629 249.77513943 175.28507522 249.88611999 170.99975586 249.85668945 C169.37749193 249.89235754 167.75533787 249.93335954 166.1333313 249.97926331 C161.74168898 250.08523331 157.35344786 250.1077987 152.96066356 250.10847878 C149.28305584 250.11491096 145.60619616 250.15784937 141.92884356 250.19923848 C133.24223721 250.29460202 124.55740671 250.31758976 115.87036133 250.29907227 C106.93836383 250.28161167 98.01542553 250.40092568 89.08552831 250.58590537 C81.3947055 250.73943671 73.70680405 250.79906261 66.01446825 250.78683823 C61.4296556 250.78094595 56.85244819 250.81091389 52.26914787 250.93486977 C24.57330272 251.63026821 24.57330272 251.63026821 17.02522659 245.63863754 C12.18498313 240.07463762 8.97394707 233.92878416 6.34607792 227.06688213 C5.19527075 224.44490172 4.00350803 222.52517807 2.38485336 220.2018404 C-0.47054583 215.72407425 -0.69425397 212.05459928 -0.60127258 206.83776855 C-0.60554471 205.94888585 -0.60981683 205.06000314 -0.61421841 204.14418459 C-0.62241507 201.18349121 -0.59501857 198.2242334 -0.56762695 195.26367188 C-0.56621577 193.13444044 -0.56700984 191.00520658 -0.56983948 188.87597656 C-0.57127225 183.10782509 -0.54190423 177.34019499 -0.50696969 171.57216454 C-0.4756835 165.53971383 -0.47277365 159.50725077 -0.46684265 153.47473145 C-0.45131093 142.05677492 -0.41029128 130.63905816 -0.3600952 119.22120714 C-0.30418108 106.22009367 -0.27670998 93.21896866 -0.25161803 80.21776485 C-0.19937505 53.47837705 -0.11144556 26.73920197 0 0 Z " fill="#000000" transform="translate(153,264)"/>
<path d="M0 0 C51.15 0 102.3 0 155 0 C155 37.29 155 74.58 155 113 C103.85 113 52.7 113 0 113 C0 75.71 0 38.42 0 0 Z M15 15 C15 42.72 15 70.44 15 99 C56.25 99 97.5 99 140 99 C140 71.28 140 43.56 140 15 C98.75 15 57.5 15 15 15 Z " fill="#000000" transform="translate(179,214)"/>
<path d="M0 0 C41.25 0 82.5 0 125 0 C125 27.72 125 55.44 125 84 C83.75 84 42.5 84 0 84 C0 56.28 0 28.56 0 0 Z M13 1 C13 28.06 13 55.12 13 83 C49.63 83 86.26 83 124 83 C124 55.94 124 28.88 124 1 C87.37 1 50.74 1 13 1 Z " fill="#EB7336" transform="translate(194,229)"/>
<path d="M0 0 C7.59 0 15.18 0 23 0 C23.43464385 3.99717109 23.86408668 7.99446514 24.28173828 11.9934082 C24.49362247 14.00204192 24.71348496 16.00982903 24.93359375 18.01757812 C25.8748965 27.09442603 26.13147365 35.8790154 26 45 C16.43 45 6.86 45 -3 45 C-3 38.67759088 -2.91870291 32.62275632 -2.34375 26.3671875 C-2.27716187 25.6044754 -2.21057373 24.84176331 -2.14196777 24.05593872 C-1.93203514 21.66191345 -1.71613779 19.26847217 -1.5 16.875 C-1.35507042 15.23441014 -1.21053597 13.59378532 -1.06640625 11.953125 C-0.71622008 7.96824785 -0.35794045 3.98421816 0 0 Z " fill="#DAD9DB" transform="translate(192,120)"/>
<path d="M0 0 C3.63 0 7.26 0 11 0 C11 29.7 11 59.4 11 90 C7.37 90 3.74 90 0 90 C0 60.3 0 30.6 0 0 Z " fill="#525055" transform="translate(198,15)"/>
<path d="M0 0 C12.21 0 24.42 0 37 0 C37 5.28 37 10.56 37 16 C24.79 16 12.58 16 0 16 C0 10.72 0 5.44 0 0 Z " fill="#070707" transform="translate(238,351)"/>
<path d="M0 0 C12.21 0 24.42 0 37 0 C37 5.28 37 10.56 37 16 C31.89130189 16.02290896 26.78278074 16.04283601 21.67407227 16.05493164 C19.93480832 16.05997204 18.19554864 16.0668043 16.45629883 16.07543945 C13.96174063 16.08751792 11.46723827 16.09323108 8.97265625 16.09765625 C8.19036148 16.10281754 7.40806671 16.10797882 6.60206604 16.11329651 C4.73432886 16.11349226 2.86670796 16.06199694 1 16 C0.67 15.67 0.34 15.34 0 15 C0 10.05 0 5.1 0 0 Z " fill="#070607" transform="translate(186,351)"/>
<path d="M0 0 C4.29 0 8.58 0 13 0 C12.50191546 9.76507845 11.83451013 19.50759739 11 29.25 C10.8755249 30.73125366 10.8755249 30.73125366 10.74853516 32.24243164 C10.66651855 33.17821045 10.58450195 34.11398926 10.5 35.078125 C10.4278125 35.90731445 10.355625 36.73650391 10.28125 37.59082031 C9.99062621 40.08029561 9.4915419 42.54229049 9 45 C5.04 45 1.08 45 -3 45 C-3.22889618 35.55803259 -2.34813691 26.26712011 -1.5 16.875 C-1.35507042 15.23441014 -1.21053597 13.59378532 -1.06640625 11.953125 C-0.71549164 7.96833238 -0.35923337 3.98405093 0 0 Z " fill="#B9B8BB" transform="translate(192,120)"/>
<path d="M0 0 C12.21 0 24.42 0 37 0 C37 4.95 37 9.9 37 15 C24.79 15 12.58 15 0 15 C0 10.05 0 5.1 0 0 Z " fill="#030303" transform="translate(238,438)"/>
<path d="M0 0 C12.21 0 24.42 0 37 0 C37 4.95 37 9.9 37 15 C24.79 15 12.58 15 0 15 C0 10.05 0 5.1 0 0 Z " fill="#030303" transform="translate(186,438)"/>
<path d="M0 0 C12.21 0 24.42 0 37 0 C37 4.95 37 9.9 37 15 C24.79 15 12.58 15 0 15 C0 10.05 0 5.1 0 0 Z " fill="#020202" transform="translate(238,409)"/>
<path d="M0 0 C12.21 0 24.42 0 37 0 C37 4.95 37 9.9 37 15 C24.79 15 12.58 15 0 15 C0 10.05 0 5.1 0 0 Z " fill="#020203" transform="translate(238,380)"/>
<path d="M0 0 C12.21 0 24.42 0 37 0 C37 4.95 37 9.9 37 15 C24.79 15 12.58 15 0 15 C0 10.05 0 5.1 0 0 Z " fill="#030203" transform="translate(186,380)"/>
<path d="M0 0 C11.88 0 23.76 0 36 0 C36 4.95 36 9.9 36 15 C24.12 15 12.24 15 0 15 C0 10.05 0 5.1 0 0 Z " fill="#020102" transform="translate(290,438)"/>
<path d="M0 0 C11.88 0 23.76 0 36 0 C36 4.95 36 9.9 36 15 C24.12 15 12.24 15 0 15 C0 10.05 0 5.1 0 0 Z " fill="#000000" transform="translate(290,409)"/>
<path d="M0 0 C11.88 0 23.76 0 36 0 C36 4.95 36 9.9 36 15 C24.12 15 12.24 15 0 15 C0 10.05 0 5.1 0 0 Z " fill="#000000" transform="translate(187,409)"/>
<path d="M0 0 C11.88 0 23.76 0 36 0 C36 4.95 36 9.9 36 15 C24.12 15 12.24 15 0 15 C0 10.05 0 5.1 0 0 Z " fill="#010101" transform="translate(290,380)"/>
<path d="M0 0 C9.9 0 19.8 0 30 0 C30 5.61 30 11.22 30 17 C20.1 17 10.2 17 0 17 C0 11.39 0 5.78 0 0 Z " fill="#DCDBDD" transform="translate(297,149)"/>
<path d="M0 0 C11.88 0 23.76 0 36 0 C36 4.62 36 9.24 36 14 C24.12 14 12.24 14 0 14 C0 9.38 0 4.76 0 0 Z " fill="#000000" transform="translate(290,352)"/>
<path d="M0 0 C4.29 0 8.58 0 13 0 C13 5.28 13 10.56 13 16 C18.61 16 24.22 16 30 16 C30 16.33 30 16.66 30 17 C20.1 17 10.2 17 0 17 C0 11.39 0 5.78 0 0 Z " fill="#AFAEB1" transform="translate(297,149)"/>
<path d="M0 0 C4.95 0 9.9 0 15 0 C15 4.95 15 9.9 15 15 C10.05 15 5.1 15 0 15 C0 10.05 0 5.1 0 0 Z " fill="#FFFBF9" transform="translate(261,271)"/>
<path d="M0 0 C4.95 0 9.9 0 15 0 C15 4.95 15 9.9 15 15 C10.05 15 5.1 15 0 15 C0 10.05 0 5.1 0 0 Z " fill="#FFFBF9" transform="translate(236,271)"/>
</svg>
